<svg id="Layer_1" data-name="Layer 1" xmlns="http://www.w3.org/2000/svg" viewBox="0 0 512 512"><defs><style>.cls-1{fill:#c0ccdd;}.cls-2{fill:#f7818f;}.cls-3{fill:#50b9ff;}.cls-4{opacity:0.06;}</style></defs><title>cloud-data-flat</title><path class="cls-1" d="M216.62,39.38H190.36a6.56,6.56,0,1,0,0,13.13h26.26a6.56,6.56,0,1,0,0-13.13Z"/><path class="cls-1" d="M137.85,39.38H111.59A6.56,6.56,0,0,0,105,45.95V72.21a6.56,6.56,0,0,0,13.13,0V52.51h19.69a6.56,6.56,0,1,0,0-13.13Z"/><path class="cls-1" d="M111.59,118.15a6.56,6.56,0,0,0-6.56,6.56V151a6.56,6.56,0,0,0,13.13,0V124.72A6.56,6.56,0,0,0,111.59,118.15Z"/><path class="cls-1" d="M111.59,196.92a6.56,6.56,0,0,0-6.56,6.56v26.26a6.56,6.56,0,1,0,13.13,0V203.49A6.56,6.56,0,0,0,111.59,196.92Z"/><path class="cls-1" d="M321.64,459.49H295.38a6.56,6.56,0,1,0,0,13.13h26.26a6.56,6.56,0,1,0,0-13.13Z"/><path class="cls-1" d="M400.41,433.23a6.56,6.56,0,0,0-6.56,6.56v19.69H374.15a6.56,6.56,0,1,0,0,13.13h26.26a6.56,6.56,0,0,0,6.56-6.56V439.79A6.56,6.56,0,0,0,400.41,433.23Z"/><path class="cls-1" d="M400.41,354.46a6.56,6.56,0,0,0-6.56,6.56v26.26a6.56,6.56,0,0,0,13.13,0V361A6.56,6.56,0,0,0,400.41,354.46Z"/><path class="cls-1" d="M400.41,275.69a6.56,6.56,0,0,0-6.56,6.56v26.26a6.56,6.56,0,0,0,13.13,0V282.26A6.56,6.56,0,0,0,400.41,275.69Z"/><path class="cls-1" d="M400.41,196.92a6.56,6.56,0,0,0-6.56,6.56v26.26a6.56,6.56,0,0,0,13.13,0V203.49A6.56,6.56,0,0,0,400.41,196.92Z"/><path class="cls-1" d="M111.59,275.69a6.56,6.56,0,0,0-6.56,6.56v26.26a6.56,6.56,0,1,0,13.13,0V282.26A6.56,6.56,0,0,0,111.59,275.69Z"/><path class="cls-2" d="M249.44,459.49A52.58,52.58,0,0,1,196.92,512H52.51a52.5,52.5,0,0,1-10.7-103.91,72.18,72.18,0,0,1,139.82,1.18,52,52,0,0,1,15.29-2.3A52.58,52.58,0,0,1,249.44,459.49Z"/><path class="cls-3" d="M512,105a52.58,52.58,0,0,1-52.51,52.51H315.08a52.5,52.5,0,0,1-10.7-103.91,72.18,72.18,0,0,1,139.82,1.18,52,52,0,0,1,15.29-2.3A52.58,52.58,0,0,1,512,105Z"/><g class="cls-4"><path d="M512,105a52.58,52.58,0,0,1-52.51,52.51H374.15V0a72.33,72.33,0,0,1,70,54.81,52,52,0,0,1,15.29-2.3A52.58,52.58,0,0,1,512,105Z"/></g><g class="cls-4"><path d="M249.44,459.49A52.58,52.58,0,0,1,196.92,512H111.59V354.46a72.33,72.33,0,0,1,70,54.81,52,52,0,0,1,15.29-2.3A52.58,52.58,0,0,1,249.44,459.49Z"/></g></svg>